<?xml version="1.0" standalone="no"?>
<svg xmlns:xlink="http://www.w3.org/1999/xlink" id="wave" style="transform:rotate(180deg); transition: 0.3s" viewBox="0 0 1440 120" version="1.1" xmlns="http://www.w3.org/2000/svg"><defs><linearGradient id="sw-gradient-0" x1="0" x2="0" y1="1" y2="0"><stop stop-color="rgba(207.508, 207.508, 207.508, 0.7)" offset="0%"/><stop stop-color="rgba(227.999, 227.999, 227.999, 0)" offset="100%"/></linearGradient></defs><path style="transform:translate(0, 0px); opacity:1" fill="url(#sw-gradient-0)" d="M0,24L1440,0L2880,84L4320,60L5760,108L7200,24L8640,108L10080,96L11520,96L12960,108L14400,24L15840,72L17280,72L18720,0L20160,0L21600,108L23040,36L24480,0L25920,48L27360,36L28800,96L30240,24L31680,24L33120,24L34560,0L34560,120L33120,120L31680,120L30240,120L28800,120L27360,120L25920,120L24480,120L23040,120L21600,120L20160,120L18720,120L17280,120L15840,120L14400,120L12960,120L11520,120L10080,120L8640,120L7200,120L5760,120L4320,120L2880,120L1440,120L0,120Z"/></svg>