<?xml version="1.0" standalone="no"?><svg xmlns="http://www.w3.org/2000/svg" viewBox="0 0 1440 320"><path fill="#f3f4f5" fill-opacity="1" d="M0,192L30,197.3C60,203,120,213,180,213.3C240,213,300,203,360,202.7C420,203,480,213,540,224C600,235,660,245,720,261.3C780,277,840,299,900,304C960,309,1020,299,1080,288C1140,277,1200,267,1260,224C1320,181,1380,107,1410,69.3L1440,32L1440,320L1410,320C1380,320,1320,320,1260,320C1200,320,1140,320,1080,320C1020,320,960,320,900,320C840,320,780,320,720,320C660,320,600,320,540,320C480,320,420,320,360,320C300,320,240,320,180,320C120,320,60,320,30,320L0,320Z"></path></svg>