<?xml version="1.0" standalone="no"?>
<svg xmlns:xlink="http://www.w3.org/1999/xlink" id="wave" style="transform:rotate(0deg); transition: 0.3s" viewBox="0 0 1440 110" version="1.1" xmlns="http://www.w3.org/2000/svg"><defs><linearGradient id="sw-gradient-0" x1="0" x2="0" y1="1" y2="0"><stop stop-color="rgba(0, 112, 243, 0.56)" offset="0%"/><stop stop-color="rgba(0, 112, 243, 1)" offset="100%"/></linearGradient></defs><path style="transform:translate(0, 0px); opacity:1" fill="url(#sw-gradient-0)" d="M0,22L30,18.3C60,15,120,7,180,16.5C240,26,300,51,360,60.5C420,70,480,62,540,66C600,70,660,84,720,78.8C780,73,840,48,900,47.7C960,48,1020,73,1080,84.3C1140,95,1200,92,1260,89.8C1320,88,1380,88,1440,89.8C1500,92,1560,95,1620,84.3C1680,73,1740,48,1800,42.2C1860,37,1920,51,1980,58.7C2040,66,2100,66,2160,55C2220,44,2280,22,2340,11C2400,0,2460,0,2520,16.5C2580,33,2640,66,2700,71.5C2760,77,2820,55,2880,38.5C2940,22,3000,11,3060,12.8C3120,15,3180,29,3240,34.8C3300,40,3360,37,3420,44C3480,51,3540,70,3600,67.8C3660,66,3720,44,3780,33C3840,22,3900,22,3960,22C4020,22,4080,22,4140,18.3C4200,15,4260,7,4290,3.7L4320,0L4320,110L4290,110C4260,110,4200,110,4140,110C4080,110,4020,110,3960,110C3900,110,3840,110,3780,110C3720,110,3660,110,3600,110C3540,110,3480,110,3420,110C3360,110,3300,110,3240,110C3180,110,3120,110,3060,110C3000,110,2940,110,2880,110C2820,110,2760,110,2700,110C2640,110,2580,110,2520,110C2460,110,2400,110,2340,110C2280,110,2220,110,2160,110C2100,110,2040,110,1980,110C1920,110,1860,110,1800,110C1740,110,1680,110,1620,110C1560,110,1500,110,1440,110C1380,110,1320,110,1260,110C1200,110,1140,110,1080,110C1020,110,960,110,900,110C840,110,780,110,720,110C660,110,600,110,540,110C480,110,420,110,360,110C300,110,240,110,180,110C120,110,60,110,30,110L0,110Z"/></svg>