<?xml version="1.0" standalone="no"?>
<svg xmlns:xlink="http://www.w3.org/1999/xlink" id="wave" style="transform:rotate(0deg); transition: 0.3s" viewBox="0 0 1440 430" version="1.1" xmlns="http://www.w3.org/2000/svg"><defs><linearGradient id="sw-gradient-0" x1="0" x2="0" y1="1" y2="0"><stop stop-color="rgba(62, 71.325, 243, 1)" offset="0%"/><stop stop-color="rgba(11, 31.836, 255, 1)" offset="100%"/></linearGradient></defs><path style="transform:translate(0, 0px); opacity:1" fill="url(#sw-gradient-0)" d="M0,301L60,265.2C120,229,240,158,360,172C480,186,600,287,720,322.5C840,358,960,330,1080,286.7C1200,244,1320,186,1440,200.7C1560,215,1680,301,1800,329.7C1920,358,2040,330,2160,279.5C2280,229,2400,158,2520,107.5C2640,57,2760,29,2880,35.8C3000,43,3120,86,3240,129C3360,172,3480,215,3600,229.3C3720,244,3840,229,3960,207.8C4080,186,4200,158,4320,186.3C4440,215,4560,301,4680,308.2C4800,315,4920,244,5040,222.2C5160,201,5280,229,5400,236.5C5520,244,5640,229,5760,250.8C5880,272,6000,330,6120,308.2C6240,287,6360,186,6480,157.7C6600,129,6720,172,6840,193.5C6960,215,7080,215,7200,229.3C7320,244,7440,272,7560,236.5C7680,201,7800,100,7920,93.2C8040,86,8160,172,8280,193.5C8400,215,8520,172,8580,150.5L8640,129L8640,430L8580,430C8520,430,8400,430,8280,430C8160,430,8040,430,7920,430C7800,430,7680,430,7560,430C7440,430,7320,430,7200,430C7080,430,6960,430,6840,430C6720,430,6600,430,6480,430C6360,430,6240,430,6120,430C6000,430,5880,430,5760,430C5640,430,5520,430,5400,430C5280,430,5160,430,5040,430C4920,430,4800,430,4680,430C4560,430,4440,430,4320,430C4200,430,4080,430,3960,430C3840,430,3720,430,3600,430C3480,430,3360,430,3240,430C3120,430,3000,430,2880,430C2760,430,2640,430,2520,430C2400,430,2280,430,2160,430C2040,430,1920,430,1800,430C1680,430,1560,430,1440,430C1320,430,1200,430,1080,430C960,430,840,430,720,430C600,430,480,430,360,430C240,430,120,430,60,430L0,430Z"/><defs><linearGradient id="sw-gradient-1" x1="0" x2="0" y1="1" y2="0"><stop stop-color="rgba(62, 108.112, 243, 1)" offset="0%"/><stop stop-color="rgba(11, 172.347, 255, 1)" offset="100%"/></linearGradient></defs><path style="transform:translate(0, 50px); opacity:0.9" fill="url(#sw-gradient-1)" d="M0,301L60,272.3C120,244,240,186,360,157.7C480,129,600,129,720,157.7C840,186,960,244,1080,258C1200,272,1320,244,1440,200.7C1560,158,1680,100,1800,93.2C1920,86,2040,129,2160,150.5C2280,172,2400,172,2520,186.3C2640,201,2760,229,2880,215C3000,201,3120,143,3240,121.8C3360,100,3480,115,3600,121.8C3720,129,3840,129,3960,157.7C4080,186,4200,244,4320,250.8C4440,258,4560,215,4680,179.2C4800,143,4920,115,5040,93.2C5160,72,5280,57,5400,100.3C5520,143,5640,244,5760,250.8C5880,258,6000,172,6120,136.2C6240,100,6360,115,6480,136.2C6600,158,6720,186,6840,172C6960,158,7080,100,7200,71.7C7320,43,7440,43,7560,71.7C7680,100,7800,158,7920,150.5C8040,143,8160,72,8280,57.3C8400,43,8520,86,8580,107.5L8640,129L8640,430L8580,430C8520,430,8400,430,8280,430C8160,430,8040,430,7920,430C7800,430,7680,430,7560,430C7440,430,7320,430,7200,430C7080,430,6960,430,6840,430C6720,430,6600,430,6480,430C6360,430,6240,430,6120,430C6000,430,5880,430,5760,430C5640,430,5520,430,5400,430C5280,430,5160,430,5040,430C4920,430,4800,430,4680,430C4560,430,4440,430,4320,430C4200,430,4080,430,3960,430C3840,430,3720,430,3600,430C3480,430,3360,430,3240,430C3120,430,3000,430,2880,430C2760,430,2640,430,2520,430C2400,430,2280,430,2160,430C2040,430,1920,430,1800,430C1680,430,1560,430,1440,430C1320,430,1200,430,1080,430C960,430,840,430,720,430C600,430,480,430,360,430C240,430,120,430,60,430L0,430Z"/></svg>