<?xml version="1.0" standalone="no"?>
<svg xmlns:xlink="http://www.w3.org/1999/xlink" id="wave" style="transform:rotate(0deg); transition: 0.3s" viewBox="0 0 1440 100" version="1.1" xmlns="http://www.w3.org/2000/svg"><defs><linearGradient id="sw-gradient-0" x1="0" x2="0" y1="1" y2="0"><stop stop-color="rgba(207.508, 207.508, 207.508, 0.7)" offset="0%"/><stop stop-color="rgba(227.999, 227.999, 227.999, 0)" offset="100%"/></linearGradient></defs><path style="transform:translate(0, 0px); opacity:1" fill="url(#sw-gradient-0)" d="M0,20L480,0L960,70L1440,50L1920,90L2400,20L2880,90L3360,80L3840,80L4320,90L4800,20L5280,60L5760,60L6240,0L6720,0L7200,90L7680,30L8160,0L8640,40L9120,30L9600,80L10080,20L10560,20L11040,20L11520,0L11520,100L11040,100L10560,100L10080,100L9600,100L9120,100L8640,100L8160,100L7680,100L7200,100L6720,100L6240,100L5760,100L5280,100L4800,100L4320,100L3840,100L3360,100L2880,100L2400,100L1920,100L1440,100L960,100L480,100L0,100Z"/></svg>