<?xml version="1.0" standalone="no"?>
<svg xmlns:xlink="http://www.w3.org/1999/xlink" id="wave" style="transform:rotate(180deg); transition: 0.3s" viewBox="0 0 1440 200" version="1.1" xmlns="http://www.w3.org/2000/svg"><defs><linearGradient id="sw-gradient-0" x1="0" x2="0" y1="1" y2="0"><stop stop-color="rgba(62, 71.325, 243, 1)" offset="0%"/><stop stop-color="rgba(11, 31.836, 255, 1)" offset="100%"/></linearGradient></defs><path style="transform:translate(0, 0px); opacity:1" fill="url(#sw-gradient-0)" d="M0,140L80,123.3C160,107,320,73,480,80C640,87,800,133,960,150C1120,167,1280,153,1440,133.3C1600,113,1760,87,1920,93.3C2080,100,2240,140,2400,153.3C2560,167,2720,153,2880,130C3040,107,3200,73,3360,50C3520,27,3680,13,3840,16.7C4000,20,4160,40,4320,60C4480,80,4640,100,4800,106.7C4960,113,5120,107,5280,96.7C5440,87,5600,73,5760,86.7C5920,100,6080,140,6240,143.3C6400,147,6560,113,6720,103.3C6880,93,7040,107,7200,110C7360,113,7520,107,7680,116.7C7840,127,8000,153,8160,143.3C8320,133,8480,87,8640,73.3C8800,60,8960,80,9120,90C9280,100,9440,100,9600,106.7C9760,113,9920,127,10080,110C10240,93,10400,47,10560,43.3C10720,40,10880,80,11040,90C11200,100,11360,80,11440,70L11520,60L11520,200L11440,200C11360,200,11200,200,11040,200C10880,200,10720,200,10560,200C10400,200,10240,200,10080,200C9920,200,9760,200,9600,200C9440,200,9280,200,9120,200C8960,200,8800,200,8640,200C8480,200,8320,200,8160,200C8000,200,7840,200,7680,200C7520,200,7360,200,7200,200C7040,200,6880,200,6720,200C6560,200,6400,200,6240,200C6080,200,5920,200,5760,200C5600,200,5440,200,5280,200C5120,200,4960,200,4800,200C4640,200,4480,200,4320,200C4160,200,4000,200,3840,200C3680,200,3520,200,3360,200C3200,200,3040,200,2880,200C2720,200,2560,200,2400,200C2240,200,2080,200,1920,200C1760,200,1600,200,1440,200C1280,200,1120,200,960,200C800,200,640,200,480,200C320,200,160,200,80,200L0,200Z"/><defs><linearGradient id="sw-gradient-1" x1="0" x2="0" y1="1" y2="0"><stop stop-color="rgba(62, 108.112, 243, 1)" offset="0%"/><stop stop-color="rgba(11, 172.347, 255, 1)" offset="100%"/></linearGradient></defs><path style="transform:translate(0, 50px); opacity:0.9" fill="url(#sw-gradient-1)" d="M0,140L80,126.7C160,113,320,87,480,73.3C640,60,800,60,960,73.3C1120,87,1280,113,1440,120C1600,127,1760,113,1920,93.3C2080,73,2240,47,2400,43.3C2560,40,2720,60,2880,70C3040,80,3200,80,3360,86.7C3520,93,3680,107,3840,100C4000,93,4160,67,4320,56.7C4480,47,4640,53,4800,56.7C4960,60,5120,60,5280,73.3C5440,87,5600,113,5760,116.7C5920,120,6080,100,6240,83.3C6400,67,6560,53,6720,43.3C6880,33,7040,27,7200,46.7C7360,67,7520,113,7680,116.7C7840,120,8000,80,8160,63.3C8320,47,8480,53,8640,63.3C8800,73,8960,87,9120,80C9280,73,9440,47,9600,33.3C9760,20,9920,20,10080,33.3C10240,47,10400,73,10560,70C10720,67,10880,33,11040,26.7C11200,20,11360,40,11440,50L11520,60L11520,200L11440,200C11360,200,11200,200,11040,200C10880,200,10720,200,10560,200C10400,200,10240,200,10080,200C9920,200,9760,200,9600,200C9440,200,9280,200,9120,200C8960,200,8800,200,8640,200C8480,200,8320,200,8160,200C8000,200,7840,200,7680,200C7520,200,7360,200,7200,200C7040,200,6880,200,6720,200C6560,200,6400,200,6240,200C6080,200,5920,200,5760,200C5600,200,5440,200,5280,200C5120,200,4960,200,4800,200C4640,200,4480,200,4320,200C4160,200,4000,200,3840,200C3680,200,3520,200,3360,200C3200,200,3040,200,2880,200C2720,200,2560,200,2400,200C2240,200,2080,200,1920,200C1760,200,1600,200,1440,200C1280,200,1120,200,960,200C800,200,640,200,480,200C320,200,160,200,80,200L0,200Z"/></svg>