<?xml version="1.0" standalone="no"?><svg xmlns="http://www.w3.org/2000/svg" viewBox="0 0 1440 320"><path fill="#f3f4f5" fill-opacity="1" d="M0,256L34.3,256C68.6,256,137,256,206,234.7C274.3,213,343,171,411,128C480,85,549,43,617,42.7C685.7,43,754,85,823,85.3C891.4,85,960,43,1029,58.7C1097.1,75,1166,149,1234,149.3C1302.9,149,1371,75,1406,37.3L1440,0L1440,0L1405.7,0C1371.4,0,1303,0,1234,0C1165.7,0,1097,0,1029,0C960,0,891,0,823,0C754.3,0,686,0,617,0C548.6,0,480,0,411,0C342.9,0,274,0,206,0C137.1,0,69,0,34,0L0,0Z"></path></svg>